<svg width="16" height="16" xmlns="http://www.w3.org/2000/svg" xmlns:xlink="http://www.w3.org/1999/xlink" xml:space="preserve" overflow="hidden"><defs><clipPath id="clip0"><rect x="632" y="352" width="16" height="16"/></clipPath></defs><g clip-path="url(#clip0)" transform="translate(-632 -352)"><path d="M634.866 366.85C634.788 367.294 635.226 367.641 635.612 367.443L640.002 365.187 644.391 367.443C644.777 367.641 645.215 367.294 645.137 366.851L644.307 362.121 647.829 358.765C648.159 358.451 647.989 357.877 647.547 357.815L642.649 357.119 640.465 352.792C640.344 352.536 640.038 352.427 639.782 352.548 639.675 352.599 639.589 352.685 639.538 352.792L637.354 357.12 632.456 357.816C632.015 357.878 631.844 358.452 632.173 358.766L635.696 362.122 634.866 366.852ZM639.771 364.083 636.085 365.977 636.779 362.02C636.812 361.835 636.751 361.646 636.616 361.515L633.71 358.745 637.762 358.169C637.932 358.143 638.079 358.036 638.155 357.881L640 354.223 641.847 357.881C641.923 358.036 642.07 358.143 642.24 358.169L646.292 358.744 643.386 361.514C643.251 361.645 643.19 361.835 643.223 362.02L643.917 365.977 640.231 364.083C640.086 364.008 639.915 364.008 639.77 364.083Z" fill="#FFFFFF" fill-rule="nonzero" fill-opacity="1"/></g></svg>